PathFileType	4	(X/Y/Z)	Run_500 02
DataRate	CameraRate	NumFrames	NumMarkers	Units	OrigDataRate	OrigDataStartFrame	OrigNumFrames
100	100	5	42	mm	100	214	128
Frame#	Time	LASI			RASI			LPSI			RPSI			RTH1			RTH2			RTH3			LTH1			LTH2			LTH3			RTB1			RTB2			RTB3			LTB1			LTB2			LTB3			RCAL			RTOE			RMT5			LCAL			LTOE			LMT5			LACR			RACR			CLAV			C7			RUA1			RUA2			RUA3			RLEL			RMEL			LUA1			LUA2			LUA3			LLEL			LMEL			RFAsuperior			RFAradius			RFAulna			LFAsuperior			LFAradius			LFAulna			
		X1	Y1	Z1	X2	Y2	Z2	X3	Y3	Z3	X4	Y4	Z4	X5	Y5	Z5	X6	Y6	Z6	X7	Y7	Z7	X8	Y8	Z8	X9	Y9	Z9	X10	Y10	Z10	X11	Y11	Z11	X12	Y12	Z12	X13	Y13	Z13	X14	Y14	Z14	X15	Y15	Z15	X16	Y16	Z16	X17	Y17	Z17	X18	Y18	Z18	X19	Y19	Z19	X20	Y20	Z20	X21	Y21	Z21	X22	Y22	Z22	X23	Y23	Z23	X24	Y24	Z24	X25	Y25	Z25	X26	Y26	Z26	X27	Y27	Z27	X28	Y28	Z28	X29	Y29	Z29	X30	Y30	Z30	X31	Y31	Z31	X32	Y32	Z32	X33	Y33	Z33	X34	Y34	Z34	X35	Y35	Z35	X36	Y36	Z36	X37	Y37	Z37	X38	Y38	Z38	X39	Y39	Z39	X40	Y40	Z40	X41	Y41	Z41	X42	Y42	Z42	

212	4.16	868.621207	992.49429	-437.255427	849.934882	1012.291036	-198.075969	702.891326	1041.238105	-388.455553	693.334574	1053.674557	-289.545281	729.620845	775.056205	-143.950584	769.019182	677.444085	-143.789499	689.82293	603.4938519999999	-165.907591	884.482749	808.503004	-493.052177	978.759729	735.69616	-477.573525	977.430719	620.49945	-442.187422	558.197848	464.030856	-235.183638	472.274694	501.191319	-200.090215	370.814101	466.884703	-270.348986	1103.525295	471.265181	-375.525276	1078.054876	371.166613	-427.683088	1154.060024	287.712261	-356.572968	286.857459	561.185759	-303.580654	214.984988	352.565535	-322.616913	175.720106	405.192922	-233.637608	1115.023715	127.994082	-329.553015	1314.14002	222.93731	-339.87509	1291.59579	157.103664	-426.305565	854.785702	1476.514696	-493.849765	884.819438	1482.779935	-211.705587	947.246595	1394.275528	-342.531946	835.339986	1515.611679	-345.226235	855.4323869999999	1417.240783	-87.80858499999999	790.132014	1358.088266	-68.252458	843.7877140000001	1333.32626	1.52386	836.109784	1275.001782	54.548481	797.543502	1222.683811	9.803397	739.929766	1431.740371	-565.133947	689.572786	1393.042028	-501.937779	668.233647	1367.423322	-584.012125	595.352569	1312.759712	-600.692175	587.558056	1285.950147	-531.948235	944.852697	1272.549822	7.956625	1021.807078	1257.545586	-104.435946	1034.250543	1203.083504	-63.78256	697.583654	1261.04178	-619.452975	801.174905	1166.279231	-576.749478	750.809809	1141.740296	-623.795801	
213	4.17	868.361625	989.730913	-438.38587	850.489371	1009.156536	-197.122819	703.298859	1034.654651	-387.519443	693.884893	1047.047703	-288.383709	738.914006	769.194553	-140.969036	782.694792	672.801801	-139.447185	706.628968	596.047385	-159.891802	881.174623	804.616095	-491.231425	973.969081	731.2215179999999	-477.33488	971.2673559999999	614.308215	-440.705847	575.693371	467.403041	-230.533011	492.886756	510.761396	-195.938368	388.939131	487.756434	-266.644989	1090.416146	458.374003	-373.491768	1060.542154	358.827276	-425.699803	1130.968488	271.452726	-353.736325	316.359741	589.019101	-300.854123	220.380136	389.721665	-316.450015	190.077298	447.297035	-227.402191	1083.674766	113.365713	-327.493527	1286.925775	200.413855	-334.846068	1262.745163	134.772472	-421.700685	856.725937	1471.825847	-494.921987	883.813755	1478.521529	-211.818488	947.646513	1390.057017	-341.603233	834.866052	1511.953905	-345.549963	849.993173	1414.41253	-87.552605	782.2608320000001	1358.087434	-69.633765	832.169453	1331.522563	2.379442	820.312786	1274.377346	55.236156	780.944786	1223.456923	9.650655	743.266741	1424.544075	-568.351684	691.782048	1384.936883	-506.285806	673.748502	1357.844743	-588.63717	602.692148	1302.036752	-607.468264	593.816785	1274.684774	-539.076477	930.243708	1265.377762	12.95745	1011.327649	1243.582746	-95.476972	1019.218707	1189.816188	-53.05078	706.715069	1251.95937	-624.501636	810.615853	1159.365433	-579.444067	762.276352	1133.718113	-627.622641	
214	4.18	868.701666	986.1612699999999	-439.644008	851.7404	1004.105343	-196.291797	703.904011	1027.855597	-385.750464	694.333366	1039.161368	-286.253007	750.162475	761.743566	-137.580663	797.917569	667.665193	-135.501041	724.822559	587.980554	-153.648449	879.576378	800.527335	-488.54146	970.277121	727.62417	-474.850538	964.960681	607.235215	-440.008291	595.585403	469.993574	-225.521131	516.009215	519.112531	-191.45478	411.018675	506.453221	-262.760579	1074.896995	442.439314	-371.540789	1039.75504	345.220226	-424.158805	1104.48507	253.562056	-351.158193	348.571709	613.131492	-298.79468	233.116489	423.807147	-308.92268	211.556642	485.401322	-220.25775	1048.054127	101.187953	-326.170707	1255.266382	173.903006	-326.580942	1229.955099	109.568009	-415.23847	858.3519	1466.237768	-495.758411	882.36034	1473.308884	-211.483993	947.935305	1385.086567	-340.263429	834.342116	1507.177786	-346.111747	844.465819	1410.798932	-87.554286	774.324895	1357.603362	-71.224529	820.5007409999999	1328.752335	2.457481	803.792512	1273.289279	55.22427	763.675466	1223.898672	8.653447999999999	746.764696	1416.088686	-571.5591480000001	693.662457	1375.549558	-511.534276	679.949189	1346.750608	-594.1511860000001	611.113923	1289.936796	-615.40515	600.697117	1262.230594	-547.331785	914.444784	1257.029018	17.849101	999.460608	1227.335896	-86.051787	1002.261173	1174.735974	-41.414657	716.676587	1241.311435	-629.939617	820.485269	1150.895223	-582.149659	774.751621	1124.056137	-631.697194	
215	4.19	869.566335	981.519795	-441.036553	853.709562	997.363342	-196.091408	704.45295	1020.995872	-383.64674	694.748451	1030.198716	-283.880022	762.549923	753.791004	-134.133995	813.531964	662.773477	-131.749301	744.199466	579.860529	-147.429754	879.01906	794.831961	-486.333	966.845632	721.51058	-470.774379	957.186074	598.1560909999999	-439.726277	617.7892849999999	471.537202	-220.286363	541.444472	526.063574	-186.496445	436.62831	522.457181	-258.879828	1058.317257	424.844743	-369.681237	1017.890852	331.01871	-422.019671	1077.913296	235.855778	-347.597294	382.888667	633.4155950000001	-297.346103	252.543562	453.481284	-300.375121	239.049637	518.185264	-212.388664	1012.025971	94.819372	-322.808203	1222.592999	143.493345	-316.444061	1194.48527	84.10701899999999	-408.258738	859.793413	1459.877054	-496.201127	880.385567	1467.341156	-210.680558	948.151329	1379.507142	-338.562175	833.592186	1501.06119	-347.003688	838.704745	1406.255084	-87.63118900000001	766.097559	1356.207508	-73.34334200000001	808.828296	1324.911936	1.723953	786.914789	1271.895599	54.520837	746.155045	1224.123927	6.846294	750.58096	1406.334206	-574.7026519999999	695.72525	1364.934904	-517.592761	687.04065	1334.422589	-600.494229	620.692166	1276.768372	-624.2160689999999	608.4582370000001	1248.713751	-556.5829199999999	897.686635	1247.639719	22.612708	986.054811	1209.162357	-76.189916	983.214477	1158.24561	-29.218981	727.499299	1229.452946	-635.6931970000001	830.86647	1141.075205	-584.828881	788.218487	1113.003419	-635.907239	
216	4.2	870.025834	975.750815	-442.434266	855.849884	989.302602	-197.001297	704.372924	1014.49498	-381.916845	695.075573	1020.682541	-282.075818	775.0781490000001	745.947074	-131.137392	828.913759	658.004423	-128.125338	764.996864	571.991574	-141.384974	878.22537	787.258512	-486.007533	963.224695	711.183294	-466.83673	947.789708	587.830452	-439.154249	642.501654	471.968208	-215.367179	569.054625	531.069204	-181.234573	465.257234	535.232085	-254.972659	1043.042577	409.538107	-367.048481	998.85373	318.732091	-418.173216	1053.160491	221.403184	-341.551682	418.786592	649.563709	-295.78826	277.461333	477.97288	-291.565268	271.21349	544.695496	-204.035816	976.991397	94.79168799999999	-316.009078	1190.180932	112.661247	-306.337215	1156.856582	63.494812	-402.005659	861.214104	1453.015803	-496.375208	877.89554	1461.117387	-209.383721	948.398001	1373.520407	-336.607827	832.292626	1493.823221	-347.915282	832.435985	1400.792889	-87.627123	757.471516	1353.66434	-76.187151	796.996503	1319.926354	0.227335	769.927201	1270.258969	53.079165	728.666969	1224.181215	4.277073	754.857814	1395.378782	-577.829703	698.513365	1353.026368	-524.423432	695.151832	1321.117775	-607.549801	631.480921	1262.767808	-633.555989	617.274198	1234.211581	-566.600465	880.06217	1237.461278	27.327563	970.878543	1189.246412	-65.769431	961.975137	1140.813013	-16.617286	739.243411	1216.673306	-641.739315	841.884067	1130.082665	-587.388834	802.679788	1100.7616	-640.132567	
